<svg xmlns="http://www.w3.org/2000/svg" width="1200" height="1400" viewBox="0 0 1200 1400"><defs><marker id="arrowhead" markerWidth="10" markerHeight="7" refX="9" refY="3.5" orient="auto"><polygon points="0 0, 10 3.5, 0 7" fill="#333" /></marker></defs><g><rect x="200.0" y="50" width="200" height="60" rx="10" ry="10" fill="#f5f5f5" stroke="#333" stroke-width="2" /><text x="300.0" y="85.0" text-anchor="middle" font-family="Arial, sans-serif" font-size="14" fill="#333">Input Image</text></g><g><rect x="200.0" y="130" width="200" height="60" rx="5" ry="5" fill="#e1f5fe" stroke="#0277bd" stroke-width="2" /><text x="300.0" y="160.0" text-anchor="middle" font-family="Arial, sans-serif" font-size="14" fill="#333">DINO3Preprocessor</text><text x="300.0" y="175.0" text-anchor="middle" font-family="Arial, sans-serif" font-size="10" fill="#666">P0 Input</text></g><path d="M 300 110 L 300 130" stroke="#333" stroke-width="2" marker-end="url(#arrowhead)" /><g><rect x="200.0" y="210" width="200" height="60" rx="5" ry="5" fill="#fff3e0" stroke="#ef6c00" stroke-width="2" /><text x="300.0" y="240.0" text-anchor="middle" font-family="Arial, sans-serif" font-size="14" fill="#333">Conv</text><text x="300.0" y="255.0" text-anchor="middle" font-family="Arial, sans-serif" font-size="10" fill="#666">P1/2</text></g><path d="M 300 190 L 300 210" stroke="#333" stroke-width="2" marker-end="url(#arrowhead)" /><g><rect x="200.0" y="290" width="200" height="60" rx="5" ry="5" fill="#fff3e0" stroke="#ef6c00" stroke-width="2" /><text x="300.0" y="320.0" text-anchor="middle" font-family="Arial, sans-serif" font-size="14" fill="#333">Conv</text><text x="300.0" y="335.0" text-anchor="middle" font-family="Arial, sans-serif" font-size="10" fill="#666">P2/4</text></g><path d="M 300 270 L 300 290" stroke="#333" stroke-width="2" marker-end="url(#arrowhead)" /><g><rect x="200.0" y="370" width="200" height="60" rx="5" ry="5" fill="#f3e5f5" stroke="#7b1fa2" stroke-width="2" /><text x="300.0" y="400.0" text-anchor="middle" font-family="Arial, sans-serif" font-size="14" fill="#333">C3k2</text><text x="300.0" y="415.0" text-anchor="middle" font-family="Arial, sans-serif" font-size="10" fill="#666">P2</text></g><path d="M 300 350 L 300 370" stroke="#333" stroke-width="2" marker-end="url(#arrowhead)" /><g><rect x="200.0" y="450" width="200" height="60" rx="5" ry="5" fill="#fff3e0" stroke="#ef6c00" stroke-width="2" /><text x="300.0" y="480.0" text-anchor="middle" font-family="Arial, sans-serif" font-size="14" fill="#333">Conv</text><text x="300.0" y="495.0" text-anchor="middle" font-family="Arial, sans-serif" font-size="10" fill="#666">P3/8</text></g><path d="M 300 430 L 300 450" stroke="#333" stroke-width="2" marker-end="url(#arrowhead)" /><g><rect x="200.0" y="530" width="200" height="60" rx="5" ry="5" fill="#f3e5f5" stroke="#7b1fa2" stroke-width="2" /><text x="300.0" y="560.0" text-anchor="middle" font-family="Arial, sans-serif" font-size="14" fill="#333">C3k2</text><text x="300.0" y="575.0" text-anchor="middle" font-family="Arial, sans-serif" font-size="10" fill="#666">Standard P3</text></g><path d="M 300 510 L 300 530" stroke="#333" stroke-width="2" marker-end="url(#arrowhead)" /><g><rect x="200.0" y="610" width="200" height="60" rx="5" ry="5" fill="#e1f5fe" stroke="#0277bd" stroke-width="2" /><text x="300.0" y="640.0" text-anchor="middle" font-family="Arial, sans-serif" font-size="14" fill="#333">DINO3Backbone</text><text x="300.0" y="655.0" text-anchor="middle" font-family="Arial, sans-serif" font-size="10" fill="#666">Enhanced P3</text></g><path d="M 300 590 L 300 610" stroke="#333" stroke-width="2" marker-end="url(#arrowhead)" /><g><rect x="200.0" y="690" width="200" height="60" rx="5" ry="5" fill="#fff3e0" stroke="#ef6c00" stroke-width="2" /><text x="300.0" y="720.0" text-anchor="middle" font-family="Arial, sans-serif" font-size="14" fill="#333">Conv</text><text x="300.0" y="735.0" text-anchor="middle" font-family="Arial, sans-serif" font-size="10" fill="#666">P4/16</text></g><path d="M 300 670 L 300 690" stroke="#333" stroke-width="2" marker-end="url(#arrowhead)" /><g><rect x="200.0" y="770" width="200" height="60" rx="5" ry="5" fill="#f3e5f5" stroke="#7b1fa2" stroke-width="2" /><text x="300.0" y="800.0" text-anchor="middle" font-family="Arial, sans-serif" font-size="14" fill="#333">A2C2f</text><text x="300.0" y="815.0" text-anchor="middle" font-family="Arial, sans-serif" font-size="10" fill="#666">Standard P4</text></g><path d="M 300 750 L 300 770" stroke="#333" stroke-width="2" marker-end="url(#arrowhead)" /><g><rect x="200.0" y="850" width="200" height="60" rx="5" ry="5" fill="#fff3e0" stroke="#ef6c00" stroke-width="2" /><text x="300.0" y="880.0" text-anchor="middle" font-family="Arial, sans-serif" font-size="14" fill="#333">Conv</text><text x="300.0" y="895.0" text-anchor="middle" font-family="Arial, sans-serif" font-size="10" fill="#666">P5/32</text></g><path d="M 300 830 L 300 850" stroke="#333" stroke-width="2" marker-end="url(#arrowhead)" /><g><rect x="200.0" y="930" width="200" height="60" rx="5" ry="5" fill="#f3e5f5" stroke="#7b1fa2" stroke-width="2" /><text x="300.0" y="960.0" text-anchor="middle" font-family="Arial, sans-serif" font-size="14" fill="#333">A2C2f</text><text x="300.0" y="975.0" text-anchor="middle" font-family="Arial, sans-serif" font-size="10" fill="#666">Standard P5</text></g><path d="M 300 910 L 300 930" stroke="#333" stroke-width="2" marker-end="url(#arrowhead)" /><g><rect x="600.0" y="800.0" width="200" height="60" rx="5" ry="5" fill="#e8f5e9" stroke="#2e7d32" stroke-width="2" /><text x="700.0" y="830.0" text-anchor="middle" font-family="Arial, sans-serif" font-size="14" fill="#333">A2C2f</text><text x="700.0" y="845.0" text-anchor="middle" font-family="Arial, sans-serif" font-size="10" fill="#666">Head P4</text></g><path d="M 400.0 960.0 L 750 960.0 L 750 770.0 L 700 770.0" stroke="#333" stroke-width="2" fill="none" marker-end="url(#arrowhead)" /><path d="M 400.0 800.0 L 600.0 800.0" stroke="#333" stroke-width="2" marker-end="url(#arrowhead)" /><g><rect x="600.0" y="640.0" width="200" height="60" rx="5" ry="5" fill="#e8f5e9" stroke="#2e7d32" stroke-width="2" /><text x="700.0" y="670.0" text-anchor="middle" font-family="Arial, sans-serif" font-size="14" fill="#333">A2C2f</text><text x="700.0" y="685.0" text-anchor="middle" font-family="Arial, sans-serif" font-size="10" fill="#666">Head P3 (Small)</text></g><path d="M 700 830.0 L 700 610.0" stroke="#333" stroke-width="2" marker-end="url(#arrowhead)" /><path d="M 400.0 640.0 L 600.0 640.0" stroke="#333" stroke-width="2" marker-end="url(#arrowhead)" /><g><rect x="900" y="950.0" width="200" height="60" rx="5" ry="5" fill="#e8f5e9" stroke="#2e7d32" stroke-width="2" /><text x="1000.0" y="980.0" text-anchor="middle" font-family="Arial, sans-serif" font-size="14" fill="#333">A2C2f</text><text x="1000.0" y="995.0" text-anchor="middle" font-family="Arial, sans-serif" font-size="10" fill="#666">Head P4 (Medium)</text></g><path d="M 800.0 640.0 L 850 640.0 L 850 950.0 L 900 950.0" stroke="#333" stroke-width="2" fill="none" marker-end="url(#arrowhead)" /><path d="M 800.0 830.0 L 850 830.0 L 850 980.0 L 900 980.0" stroke="#333" stroke-width="2" fill="none" marker-end="url(#arrowhead)" /><g><rect x="900" y="1050.0" width="200" height="60" rx="5" ry="5" fill="#e8f5e9" stroke="#2e7d32" stroke-width="2" /><text x="1000.0" y="1080.0" text-anchor="middle" font-family="Arial, sans-serif" font-size="14" fill="#333">C3k2</text><text x="1000.0" y="1095.0" text-anchor="middle" font-family="Arial, sans-serif" font-size="10" fill="#666">Head P5 (Large)</text></g><path d="M 1000.0 1010.0 L 1000.0 1050.0" stroke="#333" stroke-width="2" marker-end="url(#arrowhead)" /><path d="M 400.0 960.0 L 400 960.0 L 400 1080.0 L 900 1080.0" stroke="#333" stroke-width="2" fill="none" marker-end="url(#arrowhead)" /><g><rect x="350.0" y="1170.0" width="500.0" height="60" rx="5" ry="5" fill="#ffebee" stroke="#c62828" stroke-width="2" /><text x="600.0" y="1200.0" text-anchor="middle" font-family="Arial, sans-serif" font-size="14" fill="#333">Detect</text><text x="600.0" y="1215.0" text-anchor="middle" font-family="Arial, sans-serif" font-size="10" fill="#666">P3, P4, P5</text></g><path d="M 600.0 670.0 L 600.0 670.0 L 600.0 1170.0 L 500.0 1170.0" stroke="#333" stroke-width="2" fill="none" marker-end="url(#arrowhead)" /><path d="M 1000.0 1010.0 L 1000.0 1010.0 L 1000.0 1170.0 L 600.0 1170.0" stroke="#333" stroke-width="2" fill="none" marker-end="url(#arrowhead)" /><path d="M 1000.0 1110.0 L 1000.0 1110.0 L 1000.0 1170.0 L 700.0 1170.0" stroke="#333" stroke-width="2" fill="none" marker-end="url(#arrowhead)" /></svg>